<svg xmlns="http://www.w3.org/2000/svg" width="135" height="75" fill="none"><g clip-path="url(#a)"><path fill="#fff" d="M19.08 13.459h-2.352v2.352h2.352v-2.352Z"/><path fill="#000" d="M19.08 10.976h-2.352v2.482h2.352v-2.482ZM23.785 10.976h2.352V8.624H19.08v2.352h4.705ZM28.62 10.976h-2.352v2.482h2.352v-2.482ZM30.973 13.459h-2.352v2.352h2.352v-2.352ZM33.326 10.976h-2.353v2.482h2.353v-2.482ZM38.16 8.624h-4.834v2.352H40.512V8.624h-2.352ZM42.865 10.976h-2.352v2.482h2.352v-2.482ZM42.866 13.459v9.538h2.483V13.46h-2.483ZM42.865 22.997h-2.352v2.352h2.352v-2.352ZM40.513 25.349h-2.352V27.7h2.352v-2.352ZM38.16 27.7h-2.482v2.352h2.483V27.7ZM35.678 30.053h-2.353v2.352h2.353v-2.352ZM33.326 32.535h-2.353v2.352h2.353v-2.352ZM30.973 34.887h-2.352v2.352h2.352v-2.352ZM28.62 32.535h-2.352v2.352h2.352v-2.352ZM26.268 30.053h-2.483v2.482h2.483v-2.482ZM23.785 27.7h-2.352v2.352h2.352V27.7ZM21.433 25.349H19.08V27.7h2.353v-2.352ZM19.08 22.997h-2.352v2.352h2.352v-2.352ZM16.728 20.515V13.459h-2.483v9.408h2.483v-2.352Z"/><path fill="#CE0002" d="M40.514 13.458v-2.482h-7.189v2.482h-2.352v2.352h-2.352v-2.352h-2.352v-2.482h-4.836v2.482h-2.352v2.352h-2.353v7.187h2.353v2.351h2.352V27.7h2.352v2.352h2.484v2.483h2.352v2.352h2.352v-2.352h2.353v-2.483h2.352V27.7h2.483v-2.352h2.352v-2.351h2.353v-9.539h-2.352Z"/><path fill="#fff" d="M21.433 10.976H19.08v2.351h2.353v-2.351Z"/><path fill="#000" d="M78.674 13.459v-2.483H76.32V8.624h-7.057v2.352h-2.483v2.482H64.43v-2.482h-2.483V8.624h-7.057v2.352h2.352v2.482H54.89v2.352h-2.353V13.46h2.353v-2.483h-2.353v2.482h-2.352v9.408h2.352v2.483h2.353v-2.483h-2.353v-2.352H78.674v2.352H76.32v2.483h2.353v-2.483h2.483V13.46h-2.483Z"/><path fill="#000" d="M76.321 25.349H73.97V27.7h2.352v-2.352ZM73.97 27.7h-2.353v2.352h2.352V27.7ZM71.617 30.053h-2.483v2.352h2.483v-2.352ZM69.133 32.404h-2.352v2.483h2.352v-2.483ZM66.781 34.887H64.43v2.352h2.352v-2.352ZM64.429 32.404h-2.483v2.483h2.483v-2.483ZM61.946 30.053h-2.353v2.352h2.353v-2.352ZM59.594 27.7H57.24v2.352h2.353V27.7ZM57.24 25.349h-2.352V27.7h2.353v-2.352Z"/><path fill="#fff" d="M54.889 13.459h-2.352v2.352h2.352v-2.352Z"/><path fill="#CE0002" d="M76.322 20.515H52.537v2.352h2.352v2.482h2.352v2.352h2.353v2.352h2.352v2.352h2.483v2.483h2.352v-2.483h2.353v-2.352h2.483v-2.352h2.352V25.35h2.353v-2.482h2.352v-2.352h-2.352Z"/><path fill="#fff" d="M57.241 10.976h-2.352v2.351h2.352v-2.351Z"/><path fill="#000" d="M90.698 11.106h-2.353v2.352h2.353v-2.352Z"/><path fill="#000" d="M114.482 13.459v-2.483h-2.352V8.624h-7.057v2.352h-2.483v2.482h-2.353v-2.482h-2.352V8.755H90.697v2.352h2.352v2.352h-2.352v2.351h-2.352V13.46h-2.353v9.407h2.353v2.483h2.352V27.7h2.352v2.352H95.532v2.351h2.353v2.483h2.352v2.352h2.353v-2.352h-2.353v-2.483h-2.352v-2.351h7.057v2.351h-2.352v2.483h2.352v-2.483h2.483v-2.351h2.353V27.7h2.352v-2.352h2.352v-2.483h2.483V13.46h-2.483Z"/><path fill="#fff" d="M90.697 13.459h-2.353v2.352h2.353v-2.352Z"/><path fill="#CE0002" d="M102.59 32.404h-2.352v2.483h2.352v-2.483ZM100.237 30.053h-2.352v2.352h2.352v-2.352Z"/><path fill="#CE0002" d="M102.59 30.053h-2.352v2.352h2.352v-2.352Z"/><path fill="#CE0002" d="M104.942 30.053h-2.353v2.352h2.353v-2.352Z"/><path fill="#fff" d="M93.05 11.106h-2.353v2.352h2.352v-2.352Z"/><path fill="#000" d="M13.592 57.36v-1.437h-1.438v10.061h1.438v1.438H7.84v-1.438H9.28V55.923H7.84v1.438H6.404v-4.312h8.625v4.312h-1.437ZM24.83 67.291h-5.75v-1.437h-1.307V58.668h1.438V57.23h7.188v1.438h1.437V65.854H26.4v1.437H24.83Zm-1.306-1.437h1.437V58.668h-4.313V65.854h2.876ZM36.2 71.473h-5.619v-1.438h5.62V68.73h1.437V67.29h-5.62v-1.437h-1.437V57.23h2.875v8.624h4.182V57.23h2.875V68.73h-1.437v1.437h-1.438v1.437l-1.438-.13ZM49.008 67.29H47.57v-2.874h2.875v2.875h-1.437ZM63.122 67.291h-5.75v-1.437h-1.438v-2.875h2.876v2.875h4.312v-4.312h-1.437v-1.437H58.81v-1.438h-1.438V57.23h-1.438v-2.875h1.438V53.05h7.188v1.437h1.437v2.875h-2.875v-2.875H58.81v2.875h1.437v1.437h2.875v1.437h1.438v1.438h1.437v4.311H64.56v1.438l-1.438-.131ZM75.93 67.291h-2.876v-1.437h-1.437v-7.187H68.74V57.23h2.876v-2.875h1.437V53.05h1.438v4.312h2.875v1.437h-2.875V65.984h1.437v-1.437h2.875v1.437h-1.437v1.438l-1.438-.131ZM85.862 67.291h-4.313v-1.437h1.438V58.668h-1.438V57.23h2.875v1.438h1.438V57.23h4.312v1.438h1.438v2.874h-2.875v-2.874h-1.438v1.437h-1.437V65.854h1.437v1.437h-1.437ZM101.413 67.291h-5.75v-1.437h-1.438V58.668h1.438V57.23h7.188v1.438h1.437v2.874h-7.187v4.312h4.312v-1.437h2.875v1.437h-1.437v1.437h-1.438Zm-1.437-7.055h1.437v-1.438h-4.312v1.438h2.875ZM115.658 67.291h-1.437v-1.437h-1.438v-4.312h-2.875v4.312h2.875v1.437h-4.312v-1.437h-1.438v-4.312h1.438v-1.437h4.312v-1.437h-4.312V57.23h5.75v1.438h1.437V65.854h1.438v1.437h-1.438ZM124.153 65.854V60.105h-1.437V67.291h-2.875V57.23h4.312v1.438h1.438V57.23h2.875v1.438h1.438V67.29h-2.876v-7.186h-1.437V65.854h-1.438Z"/></g><defs><clipPath id="a"><path fill="#fff" d="M0 0h135v75H0z"/></clipPath></defs></svg>